<svg xmlns="http://www.w3.org/2000/svg" data-name="Layer 1" width="128" height="128" viewBox="0 0 128 128"><path fill="rgb(244 63 94)" fill-rule="evenodd" d="M118.532 15.539L94.543 57.178a2.058 2.058 0 0 1-3.447.378A34.548 34.548 0 0 0 73.771 46.027v-.006a2.055 2.055 0 0 1-1.218-3L89.723 13.287A2.055 2.055 0 0 1 91.552 12.2l25.216.262h0a2.053 2.053 0 0 1 1.764 3.076M38.245 13.453l17.1 29.616A2.06 2.06 0 0 1 54.2 46.155 34.355 34.355 0 0 0 44.72 50.7a34.7 34.7 0 0 0-7.669 7.176 2.061 2.061 0 0 1-3.44-.208L9.461 15.539l0 0a2.055 2.055 0 0 1 1.783-3.074l25.095-.031a2.057 2.057 0 0 1 1.9 1.022"/><path fill="rgb(244 63 94)" fill-rule="evenodd" d="M64.2,42.623A36.589,36.589,0,1,1,27.611,79.212,36.589,36.589,0,0,1,64.2,42.623"/><path fill="#ffffff" fill-rule="evenodd" d="M64.2,42.623c-.422,0-.84.017-1.259.032a36.579,36.579,0,0,1,0,73.114c.419.014.837.032,1.259.032a36.589,36.589,0,1,0,0-73.178Z"/><path fill="rgb(244 63 94)" d="M84.292,60.752a26.106,26.106,0,1,0,7.646,18.46,26.024,26.024,0,0,0-7.646-18.46m-18.46-11.77a30.231,30.231,0,1,1-21.376,8.855A30.136,30.136,0,0,1,65.832,48.982Z"/><path fill="rgb(244 63 94)" d="M68.118,64.006l2.81,8.706,9.172-.018a2.39,2.39,0,0,1,1.4,4.326l0,.005L74.079,82.4l2.85,8.714a2.4,2.4,0,0,1-3.83,2.565l-7.264-5.3-7.41,5.405a2.388,2.388,0,0,1-3.678-2.669l-.006,0L57.59,82.4l-7.426-5.374a2.4,2.4,0,0,1,1.58-4.331l9,.018,2.816-8.722a2.393,2.393,0,0,1,4.562.016"/><path fill="rgb(244 63 94)" d="M82.66,60.752a26.106,26.106,0,1,0,7.646,18.46,26.023,26.023,0,0,0-7.646-18.46M64.2,48.982a30.231,30.231,0,1,1-21.376,8.855A30.135,30.135,0,0,1,64.2,48.982Z"/><path fill="#ffffff" d="M66.487,64.006l2.81,8.706,9.172-.018a2.39,2.39,0,0,1,1.4,4.326l0,.005L72.448,82.4l2.85,8.714a2.4,2.4,0,0,1-3.831,2.565L64.2,88.38l-7.41,5.405a2.389,2.389,0,0,1-3.678-2.669l-.006,0L55.96,82.4l-7.427-5.374a2.4,2.4,0,0,1,1.58-4.331l9,.018,2.816-8.722a2.392,2.392,0,0,1,4.561.016"/></svg>