<svg xmlns="http://www.w3.org/2000/svg" fill-rule="evenodd" stroke-linejoin="round" stroke-miterlimit="2" clip-rule="evenodd" viewBox="0 0 500 500"><path d="M246.402,42.415C247,40.954 248.422,40 250,40C251.578,40 253,40.954 253.598,42.415L304.906,167.84C305.424,169.106 306.285,170.203 307.392,171.007C308.499,171.811 309.808,172.291 311.172,172.392L446.313,182.431C447.887,182.548 449.234,183.605 449.722,185.106C450.21,186.608 449.741,188.255 448.537,189.274L345.106,276.83C344.062,277.714 343.285,278.871 342.862,280.173C342.439,281.474 342.387,282.867 342.713,284.196L374.926,415.825C375.301,417.358 374.712,418.966 373.435,419.894C372.158,420.821 370.447,420.885 369.105,420.054L253.873,348.742C252.709,348.022 251.368,347.641 250,347.641C248.632,347.641 247.291,348.022 246.127,348.742L130.895,420.054C129.553,420.885 127.842,420.821 126.565,419.894C125.288,418.966 124.699,417.358 125.074,415.825L157.287,284.196C157.613,282.867 157.561,281.474 157.138,280.173C156.715,278.871 155.938,277.714 154.894,276.83L51.463,189.274C50.259,188.255 49.79,186.608 50.278,185.106C50.766,183.605 52.113,182.548 53.687,182.431L188.828,172.392C190.192,172.291 191.501,171.811 192.608,171.007C193.715,170.203 194.576,169.106 195.094,167.84L246.402,42.415Z" transform="translate(127.381 131.347) scale(.49048)"/><path d="M246.402,42.415C247,40.954 248.422,40 250,40C251.578,40 253,40.954 253.598,42.415L304.906,167.84C305.424,169.106 306.285,170.203 307.392,171.007C308.499,171.811 309.808,172.291 311.172,172.392L446.313,182.431C447.887,182.548 449.234,183.605 449.722,185.106C450.21,186.608 449.741,188.255 448.537,189.274L345.106,276.83C344.062,277.714 343.285,278.871 342.862,280.173C342.439,281.474 342.387,282.867 342.713,284.196L374.926,415.825C375.301,417.358 374.712,418.966 373.435,419.894C372.158,420.821 370.447,420.885 369.105,420.054L253.873,348.742C252.709,348.022 251.368,347.641 250,347.641C248.632,347.641 247.291,348.022 246.127,348.742L130.895,420.054C129.553,420.885 127.842,420.821 126.565,419.894C125.288,418.966 124.699,417.358 125.074,415.825L157.287,284.196C157.613,282.867 157.561,281.474 157.138,280.173C156.715,278.871 155.938,277.714 154.894,276.83L51.463,189.274C50.259,188.255 49.79,186.608 50.278,185.106C50.766,183.605 52.113,182.548 53.687,182.431L188.828,172.392C190.192,172.291 191.501,171.811 192.608,171.007C193.715,170.203 194.576,169.106 195.094,167.84L246.402,42.415Z" transform="matrix(.35 0 0 .35 326.531 201.812)"/><path d="M246.402,42.415C247,40.954 248.422,40 250,40C251.578,40 253,40.954 253.598,42.415L304.906,167.84C305.424,169.106 306.285,170.203 307.392,171.007C308.499,171.811 309.808,172.291 311.172,172.392L446.313,182.431C447.887,182.548 449.234,183.605 449.722,185.106C450.21,186.608 449.741,188.255 448.537,189.274L345.106,276.83C344.062,277.714 343.285,278.871 342.862,280.173C342.439,281.474 342.387,282.867 342.713,284.196L374.926,415.825C375.301,417.358 374.712,418.966 373.435,419.894C372.158,420.821 370.447,420.885 369.105,420.054L253.873,348.742C252.709,348.022 251.368,347.641 250,347.641C248.632,347.641 247.291,348.022 246.127,348.742L130.895,420.054C129.553,420.885 127.842,420.821 126.565,419.894C125.288,418.966 124.699,417.358 125.074,415.825L157.287,284.196C157.613,282.867 157.561,281.474 157.138,280.173C156.715,278.871 155.938,277.714 154.894,276.83L51.463,189.274C50.259,188.255 49.79,186.608 50.278,185.106C50.766,183.605 52.113,182.548 53.687,182.431L188.828,172.392C190.192,172.291 191.501,171.811 192.608,171.007C193.715,170.203 194.576,169.106 195.094,167.84L246.402,42.415Z" transform="matrix(.35 0 0 .35 -1.53 201.812)"/></svg>